
***** Jolene.2008.DVDRiP.x264.AC3.NORDIC.mkv.Zen_Bud.mkv *****

Format                           : Matroska
File size                        : 1.29 GiB
Duration                         : 1h 55mn
Overall bit rate                 : 1 594 Kbps
Writing application              : HandBrake 0.9.4

Video

Format                           : AVC
Bit rate                         : 1 114 Kbps
Width                            : 720 pixels
Height                           : 436 pixels
Display aspect ratio             : 2.35:1
Stream size                      : 923 MiB (70%)
Writing library                  : x264 core 79


Audio

Format                           : AC-3
Duration                         : 1h 55mn
Bit rate                         : 448 Kbps
Channel(s)                       : 6 channels
Channel positions                : Front: L C R, Side: L R, LFE
Sampling rate                    : 48.0 KHz
Bit depth                        : 16 bits
Stream size                      : 371 MiB (28%)
Language                         : English

Text #1
Language                         : Swedish

Text #2
Language                         : Norwegian

Text #3
Language                         : Danish

Text #4
Language                         : Finnish

Menu
00:00:00.000                     : Chapter 1
00:06:12.080                     : Chapter 2


